<svg width="20" height="17" viewBox="0 0 17 17" fill="black" xmlns="http://www.w3.org/2000/svg">
<path d="M4.75778 6.75778C5.35113 6.75778 5.93115 6.58184 6.4245 6.25219C6.91784 5.92255 7.30236 5.45401 7.52942 4.90583C7.75649 4.35766 7.8159 3.75446 7.70014 3.17251C7.58438 2.59057 7.29866 2.05602 6.87911 1.63646C6.45955 1.21691 5.925 0.931183 5.34306 0.815428C4.76111 0.699672 4.15791 0.759082 3.60973 0.986145C3.06156 1.21321 2.59302 1.59773 2.26338 2.09107C1.93373 2.58442 1.75778 3.16444 1.75778 3.75778C1.75865 4.55317 2.075 5.31572 2.63742 5.87814C3.19984 6.44057 3.9624 6.75692 4.75778 6.75778ZM4.75778 2.75778C4.95557 2.75778 5.14891 2.81643 5.31335 2.92631C5.4778 3.0362 5.60598 3.19237 5.68166 3.3751C5.75735 3.55783 5.77715 3.75889 5.73857 3.95287C5.69998 4.14686 5.60474 4.32504 5.46489 4.46489C5.32504 4.60474 5.14686 4.69998 4.95287 4.73857C4.75889 4.77715 4.55783 4.75735 4.3751 4.68166C4.19237 4.60598 4.0362 4.4778 3.92632 4.31335C3.81643 4.1489 3.75778 3.95557 3.75778 3.75778C3.75796 3.49262 3.86338 3.23837 4.05087 3.05087C4.23837 2.86337 4.49262 2.75796 4.75778 2.75778ZM13.2422 9.24216C12.6488 9.24216 12.0688 9.41811 11.5755 9.74776C11.0821 10.0774 10.6976 10.5459 10.4705 11.0941C10.2435 11.6423 10.1841 12.2455 10.2998 12.8274C10.4156 13.4094 10.7013 13.9439 11.1208 14.3635C11.5404 14.783 12.075 15.0688 12.6569 15.1845C13.2388 15.3003 13.842 15.2409 14.3902 15.0138C14.9384 14.7867 15.4069 14.4022 15.7366 13.9089C16.0662 13.4155 16.2422 12.8355 16.2422 12.2422C16.2413 11.4468 15.9249 10.6842 15.3625 10.1218C14.8001 9.55938 14.0375 9.24303 13.2422 9.24216ZM13.2422 13.2422C13.0444 13.2422 12.851 13.1835 12.6866 13.0736C12.5221 12.9638 12.394 12.8076 12.3183 12.6248C12.2426 12.4421 12.2228 12.2411 12.2614 12.0471C12.3 11.8531 12.3952 11.6749 12.5351 11.5351C12.6749 11.3952 12.8531 11.3 13.0471 11.2614C13.2411 11.2228 13.4421 11.2426 13.6248 11.3183C13.8076 11.394 13.9638 11.5221 14.0736 11.6866C14.1835 11.851 14.2422 12.0444 14.2422 12.2422C14.242 12.5073 14.1366 12.7616 13.9491 12.9491C13.7616 13.1366 13.5073 13.242 13.2422 13.2422ZM16.707 0.292974C16.6141 0.200093 16.5039 0.126413 16.3826 0.0761433C16.2613 0.0258737 16.1313 0 15.9999 0C15.8686 0 15.7386 0.0258737 15.6173 0.0761433C15.496 0.126413 15.3857 0.200093 15.2929 0.292974L1.29291 14.293C1.19911 14.3856 1.12455 14.4959 1.07353 14.6174C1.0225 14.739 0.996022 14.8695 0.99561 15.0013C0.995198 15.1331 1.02086 15.2638 1.07112 15.3856C1.12139 15.5075 1.19526 15.6182 1.28848 15.7115C1.38171 15.8047 1.49245 15.8786 1.61433 15.9288C1.73621 15.9791 1.86683 16.0047 1.99866 16.0043C2.1305 16.0039 2.26095 15.9774 2.38251 15.9264C2.50407 15.8753 2.61434 15.8008 2.70697 15.707L16.707 1.70697C16.7998 1.61414 16.8735 1.50393 16.9238 1.38262C16.974 1.26131 16.9999 1.13128 16.9999 0.999974C16.9999 0.868663 16.974 0.738639 16.9238 0.61733C16.8735 0.496021 16.7998 0.385803 16.707 0.292974Z" />
</svg>
